<?xml version="1.0" encoding="utf-8"?>
<svg xmlns="http://www.w3.org/2000/svg" viewBox="0 0 32 32" width="512" height="512">
  <path d="M6.21875 5.28125L5.3125 5.6875L2.71875 6.875L1.8125 7.28125L2.21875 8.1875L4.71875 13.6875L5.125 14.59375L6.03125 14.1875L8.625 13L9.5625 12.59375L9.125 11.6875L8.25 9.75C8.425781 9.648438 8.851563 9.410156 9.6875 9.09375C9.835938 9.894531 10.078125 11.019531 10.625 12.375C10.972656 13.242188 11.421875 14.132813 12.03125 14.90625L13.125 22.59375L6.53125 26.125L7.46875 27.875L18.5 21.96875L21 22L21 28L23 28L23 20L22 20L19.3125 19.96875L19.5 15.4375C20.363281 14.546875 20.941406 13.449219 21.375 12.375C21.941406 10.96875 22.167969 9.820313 22.3125 9.03125C22.9375 9.238281 23.429688 9.429688 23.8125 9.59375L22.875 11.6875L22.46875 12.59375L23.375 13L25.96875 14.15625L26.875 14.59375L27.28125 13.65625L29.78125 8.1875L30.1875 7.28125L29.28125 6.84375L26.6875 5.6875L25.78125 5.28125L25.375 6.1875L24.65625 7.78125C23.175781 7.148438 19.984375 6 16 6C11.46875 6 8.417969 7.390625 7.4375 7.90625L6.65625 6.1875 Z M 26.78125 7.90625L27.5625 8.25L25.875 11.9375L25.125 11.59375 Z M 5.25 7.9375L6.90625 11.59375L6.125 11.9375L4.46875 8.28125 Z M 16 8C17.640625 8 19.105469 8.214844 20.375 8.5C20.273438 9.136719 20.082031 10.265625 19.53125 11.625C19.15625 12.550781 18.65625 13.453125 18.0625 14.0625C17.46875 14.671875 16.84375 15 16 15C15.15625 15 14.53125 14.671875 13.9375 14.0625C13.34375 13.453125 12.84375 12.550781 12.46875 11.625C11.929688 10.289063 11.730469 9.183594 11.625 8.53125C12.820313 8.246094 14.28125 8 16 8 Z M 16 8C14.355469 8 13 9.355469 13 11C13 12.644531 14.355469 14 16 14C17.644531 14 19 12.644531 19 11C19 9.355469 17.644531 8 16 8 Z M 16 10C16.5625 10 17 10.4375 17 11C17 11.5625 16.5625 12 16 12C15.4375 12 15 11.5625 15 11C15 10.4375 15.4375 10 16 10 Z M 14.28125 16.65625C14.808594 16.871094 15.378906 17 16 17C16.515625 17 16.988281 16.902344 17.4375 16.75L17.3125 20.34375L14.96875 21.59375Z" fill="#FFFF00" />
</svg>